<svg preserveAspectRatio="xMinYMin" xmlns="http://www.w3.org/2000/svg" viewBox="0 478.9 595.2 116.7"><path fill="#999" d="M96.8 557l-4.2-3.6c5.1-6.3 8.4-15.4 8.4-23.4 0-24.4-19.1-40.3-42.7-40.3-31.6 0-42.7 25-42.7 52.9 0 24.6 18.2 45.1 43.3 45.1 13.2 0 24.9-3.9 35.7-11.3 2.1-1.4 3.9-3.1 5.8-4.9l2.4 3.6c-10.1 12.4-27.3 20.5-43.3 20.5-32.6 0-59.5-23.7-59.5-57.2 0-33.9 24.8-59.5 58.9-59.5 28.3 0 51.7 17.8 51.7 47.5 0 10.9-5.8 23.1-13.8 30.6zm-30.1-40.6l-18.9 43.1c-1.6 3.6-3.9 7.8-8.6 7.8-3.3 0-5.9-2.4-5.9-5.8 0-2.7 1.3-5.1 2.3-7.3l20.5-46.7c1.6-3.5 3.5-6.2 7.6-6.2 3.3 0 5.8 2.4 5.8 5.8 0 3.2-1.4 6.4-2.8 9.3zm15.1 26.2l-7.6 16.9c-1.7 3.6-4.1 7.7-8.6 7.7-3.3 0-5.8-2.4-5.8-5.8 0-2.5 1.2-4.9 2.3-7.2l9.2-20.5c1.6-3.3 3.5-6.2 7.6-6.2 3.3 0 5.8 2.4 5.8 5.8-.2 3.3-1.6 6.4-2.9 9.3zM140 502.6h10.9v25.6h.1c1.3-2 3.2-3.8 5.4-4.9 2.2-1.3 4.7-1.9 7.4-1.9 7.3 0 15 4.8 15 18.6v25.3h-10.9v-24.1c0-6.3-2.3-10.9-8.3-10.9-4.2 0-7.2 2.8-8.4 6.1-.4.9-.4 2-.4 3.3v25.7h-10.9l.1-62.8zm58.1 44.2c.3 7.7 6.3 11.1 13.2 11.1 5.1 0 8.6-.7 11.9-1.9l1.6 7.5c-3.7 1.5-8.9 2.8-15 2.8-13.9 0-22.1-8.6-22.1-21.8 0-11.9 7.2-23.1 21-23.1 14 0 18.5 11.5 18.5 20.9 0 2-.1 3.6-.4 4.6l-28.7-.1zm18.9-7.6c.1-3.9-1.7-10.5-8.9-10.5-6.7 0-9.5 6.1-10 10.5H217zm32.3-28.9c0 3.3-2.4 5.8-6.2 5.8-3.6 0-6-2.5-6-5.8s2.5-5.9 6.1-5.9c3.7 0 5.9 2.5 6.1 5.9zm-11.6 54.9v-42.9h10.9v42.9h-10.9zm23.9-9.9c2.5 1.5 7.1 3.1 11 3.1 4.8 0 6.8-1.9 6.8-4.8s-1.8-4.4-7.1-6.3c-8.4-2.9-11.9-7.5-11.8-12.5 0-7.6 6.3-13.5 16.2-13.5 4.8 0 8.9 1.3 11.4 2.5l-2.2 7.7c-1.9-1-5.3-2.5-9.1-2.5-3.9 0-6 1.9-6 4.5 0 2.8 2 4.1 7.5 6 7.7 2.8 11.4 6.8 11.5 13.2 0 7.7-6.1 13.5-17.5 13.5-5.2 0-9.9-1.3-13-3.1l2.3-7.8zm46.7-8.5c.3 7.7 6.3 11.1 13.2 11.1 5.1 0 8.6-.7 11.9-1.9l1.6 7.5c-3.7 1.5-8.9 2.8-15 2.8-14-.1-22.2-8.7-22.2-21.8 0-11.9 7.2-23.1 21-23.1 14 0 18.5 11.5 18.5 20.9 0 2-.1 3.6-.4 4.6l-28.6-.1zm18.9-7.6c.1-3.9-1.7-10.5-8.9-10.5-6.7 0-9.5 6.1-10 10.5h18.9zm78 4.2c0 15.8-11.1 22.8-22 22.8-12.2-.1-21.5-8.4-21.5-22.2 0-14.1 9.3-22.8 22.2-22.8 12.7.1 21.3 9.1 21.3 22.2zm-32.4.4c0 8.3 4.1 14.5 10.7 14.5 6.2 0 10.5-6.1 10.5-14.7 0-6.7-3-14.4-10.4-14.4-7.7.1-10.8 7.5-10.8 14.6zm41.3-8.7c0-4.9-.1-9.1-.4-12.8h9.5l.5 6.4h.3c1.9-3.3 6.5-7.4 13.7-7.4 7.5 0 15.3 4.8 15.3 18.5v25.5h-10.9V541c0-6.2-2.3-10.9-8.2-10.9-4.3 0-7.3 3.1-8.5 6.3-.4 1-.4 2.3-.4 3.5v25.2h-10.9v-30zm50.4-32.5h10.9v62.7h-10.9v-62.7zm34.3 7.7c0 3.3-2.4 5.8-6.2 5.8-3.6 0-6-2.5-6-5.8s2.5-5.9 6.1-5.9c3.7 0 6 2.5 6.1 5.9zm-11.6 54.9v-42.9h10.9v42.9h-10.9zm22.6-30.1c0-4.9-.1-9.1-.4-12.8h9.5l.5 6.4h.3c1.9-3.3 6.5-7.4 13.7-7.4 7.5 0 15.3 4.8 15.3 18.5v25.5h-10.9V541c0-6.2-2.3-10.9-8.2-10.9-4.3 0-7.3 3.1-8.5 6.3-.4 1-.4 2.3-.4 3.5v25.2h-10.9v-30zm56.3 11.7c.3 7.7 6.3 11.1 13.2 11.1 5.1 0 8.6-.7 11.9-1.9l1.6 7.5c-3.7 1.5-8.9 2.8-15 2.8-13.9 0-22.1-8.6-22.1-21.8 0-11.9 7.2-23.1 21-23.1 14 0 18.5 11.5 18.5 20.9 0 2-.1 3.6-.4 4.6l-28.7-.1zm18.9-7.6c.1-3.9-1.7-10.5-8.9-10.5-6.7 0-9.5 6.1-10 10.5H585z"/></svg>